<svg id="Layer_1" data-name="Layer 1" xmlns="http://www.w3.org/2000/svg" viewBox="0 0 3084.51 2180.34"><defs><style>.cls-1{fill:#292929;}.cls-2{fill:#272727;}.cls-3{fill:#2a2a2a;}.cls-4{fill:#fed404;}.cls-5{fill:#262626;}.cls-6{fill:#282828;}.cls-7{fill:#2e2e2e;}.cls-8{fill:#252525;}.cls-9{fill:#343434;}.cls-10{fill:#fdfdfd;}.cls-11{fill:#eee;}</style></defs><path class="cls-1" d="M2166.24,2300c-5.17-2-10.22-4.45-15.54-6-40.33-11.57-67.48-40.35-71.47-76.81h37.84c26.74,46.52,66.84,62.07,115.35,44.27,21.58-7.92,33.86-22.49,34.47-40.9.67-20.19-9-36.14-32-43.76-26.26-8.71-53.62-14.15-80.56-20.8-52.37-12.92-78.07-49.65-63.61-96.2,4.88-15.71,16.37-31.64,29.18-42.18,39.66-32.64,115-29.88,154.21,3.53,17.92,15.26,27.6,34.7,27.46,59.65h-37.47c-.36-.54-1.71-1.66-1.83-2.9-5.28-55.83-85.1-60.5-116.72-35-27.57,22.25-23,58.72,10.44,70.25,28,9.67,57.33,15.37,86.07,22.84,48.43,12.6,74.89,55,61.88,101.26-10.24,36.43-39.37,51.17-73.13,59.54A92.93,92.93,0,0,0,2222,2300Z" transform="translate(-93.49 -119.61)"/><path class="cls-2" d="M180.84,2300c-.61-.69-1.11-1.83-1.85-2-54-13.48-76.45-35.44-78.84-90.13-3-69.11-.73-138.46-.73-208.52h39.92v15.41q0,89.39,0,178.75c.08,58.88,46.19,89.37,101,66.68,30-12.39,37-38.1,37.15-66.94.31-59.09.09-118.18.09-177.28v-16.63h36.76c.62,1.08,1.48,1.88,1.48,2.68,0,68.84,1,137.71-.47,206.52-1.06,50.72-30.15,81.45-79.76,89.22-1.72.27-3.28,1.49-4.91,2.26Z" transform="translate(-93.49 -119.61)"/><path class="cls-3" d="M3178,2003.87c-2.66,3-5.89,5.64-7.9,9-28.79,48.6-57.64,97.18-85.85,146.13a49.92,49.92,0,0,0-6.11,23.18c-.62,37.07-.28,74.15-.28,112.36h-38.23c0-25.11-1.71-50.44.41-75.44,2.85-33.6-5.89-62.15-24.61-90.22-25.65-38.45-47.83-79.21-71.44-119-1.67-2.83-2.89-5.92-5.53-11.38,13.61,0,25.54-.71,37.3.44,3.51.35,7.38,5.42,9.59,9.2,21.43,36.55,42.52,73.3,63.74,110,2.87,5,5.92,9.83,9.54,15.81,23.51-41.25,46.62-80.71,68.49-120.85,6.2-11.38,13.07-16.54,26-14.85,8.13,1.06,16.55-.07,24.84-.21Z" transform="translate(-93.49 -119.61)"/><path class="cls-4" d="M1632.34,1341.54c-31.95-25.23-64.75-49.81-96.09-76.14-113.39-95.25-216.14-200.57-300.36-322.91C1176,855.43,1127.58,762.67,1107,658c-7.31-37.12-11.94-75.36-12.33-113.15-1.44-137.23-.58-274.48-.54-411.72,0-4.3.44-8.6.71-13.53h1077a67.93,67.93,0,0,1,.78,7.22c-.11,148,1,296-.87,443.94-1.08,86.79-28.35,167.72-66,245.24-53.63,110.45-127.9,206.26-211.29,295.42-75.89,81.14-158.36,155-248.13,220.62C1642.33,1334.91,1638.23,1337.54,1632.34,1341.54Zm1.09-75.73c4-2.88,7.33-4.91,10.2-7.49,62.4-56.11,127-110,186.58-169,89.19-88.36,165.35-187.26,221-300.7,40.59-82.69,62.9-169.49,62-262.27-1.07-109.38-.25-218.79-.25-328.19V180.48H1154.5v9.75c0,118.68-.44,237.36.33,356a504.18,504.18,0,0,0,7.28,80c13.77,81.9,47,156.48,89.14,227.39,51.19,86.09,114.36,162.92,183.67,234.77A1789.54,1789.54,0,0,0,1633.43,1265.81Z" transform="translate(-93.49 -119.61)"/><path class="cls-5" d="M93.49,1546.26c62.93,1.77,128.33-1.25,192.41,6.54,97.86,11.89,152.85,82.61,150,182.09-1.88,66.48-24.26,122-85.38,156.12a187.29,187.29,0,0,1-86.67,24c-54.59,1.49-109.25.42-165.66.42v-15.7c0-102.06.17-204.12-.2-306.17C98,1579,95.3,1564.36,93.49,1546.26Zm96.57,293.94c22.58,0,44.11,1.33,65.41-.28,43.43-3.28,71.7-26.74,81.42-69.08A185.7,185.7,0,0,0,341,1713c-4.47-47.93-27.94-78.36-68.09-85.89-26.85-5-54.83-4.07-82.84-5.83Z" transform="translate(-93.49 -119.61)"/><path class="cls-5" d="M1741.57,1542.14c110.71,5.17,185.48,84.93,182.57,194.4-3.21,120.91-96.12,190.21-202.88,184.58-108.64-5.73-184.64-92.4-178.32-200.48C1549.6,1606.59,1636.75,1539.14,1741.57,1542.14Zm90.13,190.58c-2-13-2.91-26.15-6.1-38.79-10.77-42.58-42.85-69.55-86-73.43-37.46-3.36-74.75,18.14-90.89,54-17,37.94-17.29,76.69.36,114.47,14.94,32,40.71,50.73,76.27,53.4,36.31,2.72,65.71-10.62,86.21-41.53C1825.18,1780.27,1830.07,1757.22,1831.7,1732.72Z" transform="translate(-93.49 -119.61)"/><path class="cls-6" d="M1398.74,1767.58H1250.53v146.84h-91.74v-15.75c0-95.22.2-190.44-.16-285.66-.08-21.5-2.08-43-3.24-65.2h94.07v144.67h149.48c-4-48.2,5.89-96.35-6.64-144.52h96.29v366.73h-89.85Z" transform="translate(-93.49 -119.61)"/><path class="cls-2" d="M2306.85,1547.68c0,78.14,1.64,154.84-.46,231.44-2.12,77.44-55.74,131.62-133,140.23-31.46,3.51-62.37,2.5-92.82-6.3-59.6-17.22-99.34-64.66-101.8-126.74-2.43-61.43-1.08-123-2-184.5-.25-17.59-2.48-35.16-3.87-53.68h96v14.79q0,101.83,0,203.65c.1,55.62,40.89,87.06,95,73.43,29.54-7.45,50-29.82,50.94-63.67,1.86-68.32,1.17-136.71.73-205.07-.05-7.58-5.33-15.12-8.53-23.58Z" transform="translate(-93.49 -119.61)"/><path class="cls-2" d="M3167.14,1549v73.25H2985.28v73.49h155.39V1766H2985.54v75.26h181.24v74H2893v-15.53c0-100.59.21-201.17-.21-301.75-.07-16-2.93-32-4.59-48.92Z" transform="translate(-93.49 -119.61)"/><path class="cls-2" d="M811.59,1915.94c-30.1,0-58.81.33-87.49-.41-3.54-.09-8.62-5.16-10.13-9-7-18.14-13.63-36.5-19.22-55.12-2.49-8.3-6.61-10.34-14.62-10.27-38.6.34-77.21.44-115.81-.06-9.08-.12-12.75,3.18-15.3,11.51-5.54,18.14-12.71,35.78-18.22,53.93-2.3,7.55-5.84,9.74-13.41,9.63-27.34-.41-54.7-.16-84.08-.16,8.42-22.61,16.37-44.2,24.5-65.72q51.9-137.28,103.66-274.6c3-7.93,2.94-17,4.64-27.66,31.53,0,66-.34,100.5.51,3.56.08,8.46,6.65,10.19,11.18q48.48,126.85,96.26,254C785.76,1847.27,798.39,1880.91,811.59,1915.94ZM622.32,1641.39c-15.25,44-29.6,85.48-44.18,127.6h88C651.55,1726.48,637.38,1685.22,622.32,1641.39Z" transform="translate(-93.49 -119.61)"/><path class="cls-5" d="M2368.08,1819c46.82,16.57,92.41,28.76,140.43,26.82a126.13,126.13,0,0,0,35.58-6.72c12-4.14,20.58-13.07,21.33-27,.76-14.19-7.06-24.13-19.08-28.3-20.13-7-41.14-11.35-61.71-17.08-19.17-5.34-38.92-9.39-57.24-16.88-40.48-16.55-64.88-45.87-65.1-91.5-.22-46.1,23.17-77.27,63.4-96.78,42.44-20.59,87.91-21.48,133.33-16.41,26,2.91,51.53,10.1,77,16.37,3.94,1,9.17,7.23,9.32,11.22.89,22.9.44,45.85.44,69.7-22.55-6.12-44.06-14.18-66.27-17.4-27.24-4-55.06-4.14-82.66-5.24-5.57-.22-11.54,2.09-16.84,4.37-13.11,5.63-24,13.43-23.91,29.84.11,15.91,10.69,24.2,23.69,28,22.84,6.66,46.47,10.61,69.42,17,18.21,5.07,36.66,10.45,53.62,18.56,33.69,16.11,53.64,43.13,56,81.26,2.57,41.43-12.74,74.45-48.27,96.85-37.13,23.41-79,28.88-121.12,25.07-37.16-3.36-73.78-12.55-110.69-18.89-8.25-1.42-11.11-5.26-10.89-13.78C2368.47,1865.56,2368.08,1843.12,2368.08,1819Z" transform="translate(-93.49 -119.61)"/><path class="cls-1" d="M847.9,1915v-25.61c0-97.17.18-194.34-.17-291.51-.06-16.08-2.4-32.16-3.75-49h96v292h170.89V1915Z" transform="translate(-93.49 -119.61)"/><path class="cls-7" d="M506,2064.84v230H467.65V1998.41c10.26,0,20.14-1.21,29.5.47,5.17.93,10.77,5.8,13.94,10.43q71.2,103.79,141.76,208c1.26,1.87,2.6,3.69,5.79,8.21v-226h39.12v293.92c-26.36,6.67-32.47,4.48-47.07-17q-67.92-99.83-135.81-199.68C513,2074.06,510.85,2071.4,506,2064.84Z" transform="translate(-93.49 -119.61)"/><path class="cls-8" d="M2718.74,1548c27.12,0,56.38,0,85.63,0,2.88,0,5.76.24,9.53.41v366.77h-90.46v-15.38c0-102.08.18-204.17-.2-306.25C2723.18,1578.94,2720.43,1564.34,2718.74,1548Z" transform="translate(-93.49 -119.61)"/><path class="cls-2" d="M1890.42,2161.77l57.78,133.72c-13.72,0-25.69.74-37.46-.5-3.12-.33-6.5-6.35-8.25-10.41-15-34.87-30.12-69.75-44.3-105-3.75-9.3-8.56-12.16-18.32-11.79-21.41.8-42.87.25-65.77.25V2294.9h-38.25V1998.46c10.93,0,22-.12,33,0,33.7.43,67.54-.89,101,1.91,44.83,3.74,70.27,26.13,76.12,62.12,7.21,44.35-8.72,75.4-49.3,96.09C1895,2159.48,1893.32,2160.32,1890.42,2161.77Zm-116.15-26c24.22,0,47.13.54,70-.24a105.58,105.58,0,0,0,29.94-5.42c24.42-8.31,35.46-26.78,33.45-53.39-1.76-23.25-15.43-41.06-40-43.23-30.72-2.71-61.86-.65-93.34-.65Z" transform="translate(-93.49 -119.61)"/><path class="cls-6" d="M1400.84,2294.7V1999.29H1587.3v33.63H1439.58v96h132.08v33.13H1439.87v98.72h150.78v33.88Z" transform="translate(-93.49 -119.61)"/><path class="cls-1" d="M1249.5,1998.89h37.4c-1.29,4.62-2.16,8.64-3.52,12.48q-48.29,136.17-96.46,272.37c-3,8.5-6.47,12.27-16.21,12.2-34.34-.23-34.45.23-45.72-32.05q-44.49-127.48-88.81-255c-.94-2.68-1.7-5.42-3.26-10.4,11.76,0,22.37-1.11,32.52.57,3.83.63,8,7.22,9.63,11.92,25.85,72.89,51.31,145.93,76.89,218.92,2,5.76,4.31,11.43,7.55,20C1190.14,2164.46,1219.79,2081.74,1249.5,1998.89Z" transform="translate(-93.49 -119.61)"/><path class="cls-3" d="M2618.8,2034.92v-35.5h223.38v34.41h-89v261h-38.8V2034.92Z" transform="translate(-93.49 -119.61)"/><path class="cls-9" d="M902.84,2295.16H866.28V1999h36.56Z" transform="translate(-93.49 -119.61)"/><path class="cls-8" d="M2451.69,1999.11h36.85v295.51h-36.85Z" transform="translate(-93.49 -119.61)"/><path class="cls-10" d="M1633.43,1265.81a1789.54,1789.54,0,0,1-198.51-177.38c-69.31-71.85-132.48-148.68-183.67-234.77-42.17-70.91-75.37-145.49-89.14-227.39a504.18,504.18,0,0,1-7.28-80c-.77-118.67-.33-237.35-.33-356v-9.75H2113v17.69c0,109.4-.82,218.81.25,328.19.9,92.78-21.41,179.58-62,262.27-55.67,113.44-131.83,212.34-221,300.7-59.55,59-124.18,112.88-186.58,169C1640.76,1260.9,1637.39,1262.93,1633.43,1265.81Zm304.69-653.24c-30.16-9.07-58.54-17.38-86.75-26.23-8.93-2.8-16.66-8.1-12.43-19.26,4.14-10.94,12.73-8.85,22.09-6.9,22.38,4.65,44.88,9.29,67.58,11.74,36,3.9,62.33-27.26,54-63.27-5.16.58-10.41,1.26-15.67,1.75-31,2.87-61.31-1.08-91.09-9.89-8.73-2.58-15.16-8.18-10.86-16.76,2.21-4.41,11.28-7.88,17-7.59,24.79,1.25,49.47,5.42,74.25,6,37.09.81,59.39-29.92,49.55-67.22-9.42,1.5-19,4.54-28.47,4.25-29.12-.9-58.23-2.64-87.27-5-8.23-.67-15.16-6.12-13-15.94,2.09-9.65,9.77-11.08,18.38-9.53a51.2,51.2,0,0,0,7.24,1.07c24.3.83,48.72,3.42,72.88,1.9,34.94-2.19,54.79-36.24,42.14-68.81-70.56,19-121.67,10.17-183.28-18.55-14.57-6.79-29.52-12.8-44.38-18.95-20.25-8.38-32.78-.37-32.9,21.16-.17,31.26,0,62.53,0,93.79,0,54.61-24.54,90.75-76.07,108.79-13.91,4.86-22.81,12.07-29.56,24.92-10.26,19.51-23.21,19.24-33.62-.59-6.5-12.38-15.11-19.54-28.58-24.08-50.59-17-76.58-53.85-76.94-106.85-.22-32.73.07-65.46-.08-98.19-.09-17.8-12.66-26.72-29.34-20.6-9.58,3.52-18.71,8.24-28.12,12.23-35,14.8-69.23,31.33-107.88,35.52-32.39,3.5-63.83-.3-94.72-8.8-12.78,31.85,6.79,66.92,39.91,68.78,27.53,1.55,55.33-1.51,83-2.93,8-.42,15.11.11,17.05,9.38,2,9.8-4,14.43-12.49,16.49-6.15,1.48-12.43,3.38-18.67,3.45-32.39.34-64.79.16-98,.16-10.32,30.17,12.71,64.54,47.07,64.08,26.22-.35,52.36-4.9,78.61-6.15,5.55-.26,11.39,5.7,17.1,8.79-3.46,5.1-6.32,10.82-10.63,15.06-2.43,2.39-7.2,2.89-11,3.32-32.21,3.61-64.45,7-98.49,10.67-8.94,27.66,19.08,62,53.79,58.3,24.13-2.6,48-8.07,71.85-12.71,12-2.33,21.29,2.18,19.57,11.95-.94,5.4-6.65,12.5-11.76,14.23-28.8,9.72-58.07,18-88,27.07.52,32.32,30.41,56.12,64.35,47,17.78-4.77,35-11.94,52.06-19,8.78-3.62,15.94-4.94,21.33,4.41,5.8,10.1-.5,15.73-8.39,19.74-20.74,10.57-41.71,20.67-62.93,31.12,5.57,31.25,39.37,49.4,69.84,35.5,12.34-5.62,23.84-13.23,35.27-20.64,8.09-5.24,15.64-9,23.16,0,7.13,8.52,2.4,15.51-3.91,21.68-13.83,13.52-27.86,26.85-42.23,40.67,8.33,12.57,19.57,20.7,35,23.42,25.42,4.48,42.58-8.8,60.33-30.67,7.26,26.26,12.77,48.84,19.85,70.92,5.37,16.78-1.44,26.87-13.73,37.3-29.81,25.3-63.17,43.51-100.66,53.89,8,35.91,40.65,53,72.75,37.86,17.3-8.17,33.39-18.89,50.18-28.54,6.39,27.88,5.7,30.53-16.93,44.33-13.59,8.28-27.93,15.33-45.5,24.87,7.23,10.93,12.56,23.26,21.58,31.61,13.3,12.32,30.41,9.55,47.16,3.52,4.07,29.36-10.53,63.62,24.87,80.73,36.13-18,21.46-51.73,25.46-79.57,42.23,7.31,57.7-1.81,65.33-38-14.09-7.68-28.47-14.73-42-23.09-23.4-14.4-23.9-16.69-16.63-44.11,17.12,9.71,33.76,20.85,51.76,29,31.53,14.27,66.94-5.84,69.48-38.67-3.07-1-6.27-2-9.47-3-37.25-12.08-70.18-31.47-98.21-58.86-3.28-3.2-7.7-8-7.35-11.68,2.76-29.53,8.94-58.23,24.46-84.68,35.29,36.46,73.31,36.73,91.87,3.11-14.92-14.61-30.17-28.32-43.65-43.6-3.29-3.73-3.38-15-.21-18.37s13.34-3.72,18.55-1.3c12.72,5.92,23.86,15.21,36.51,21.31,30.79,14.84,64.23-2.12,72-34.59-21.93-10.92-43.71-21.46-65.19-32.6-8-4.16-11.89-12.34-5.52-19.25,3.54-3.85,13-5.32,18.57-3.68,18.17,5.37,35.42,13.93,53.66,18.92C1908,668.89,1937.37,645.59,1938.12,612.57ZM1651.26,453.78c3.56,2.62,5.69,5.32,8.28,5.89,9.64,2.11,19.42,3.52,29.15,5.19.47-7.91,2-15.91,1.21-23.69-2.19-22.12-5.31-44.15-8.05-66.14,23.9-3.66,33.33-12.06,38.6-33.2.57-2.26.75-5.18,2.24-6.56,16.63-15.35,9.42-34.65,10.91-50.29-10.26,2.32-19.22,5.85-28.28,6.12-26.83.79-53.71-.36-80.52.68-8.13.31-18.75,3-23.49,8.59-7,8.33-14.12,9.55-23.69,9.78-21.42.52-36.86,14.48-38.29,34.78-1,13.8-.19,27.72-.19,45.58,16.83-22.93,37.58-14.92,57.85-16.66-6.7,26.82-13,51.78-19.15,76.81-3.35,13.74-.42,17.39,13.67,14.7,9-1.72,17.41-6.24,26.44-9.63,4.39,11.4,9.14,23.74,13.9,36.08l4.58-.15Z" transform="translate(-93.49 -119.61)"/><path class="cls-5" d="M1938.12,612.57c-.75,33-30.09,56.32-64.2,47-18.24-5-35.49-13.55-53.66-18.92-5.56-1.64-15-.17-18.57,3.68-6.37,6.91-2.51,15.09,5.52,19.25,21.48,11.14,43.26,21.68,65.19,32.6-7.75,32.47-41.19,49.43-72,34.59-12.65-6.1-23.79-15.39-36.51-21.31-5.21-2.42-15.34-2.13-18.55,1.3s-3.08,14.64.21,18.37c13.48,15.28,28.73,29,43.65,43.6-18.56,33.62-56.58,33.35-91.87-3.11-15.52,26.45-21.7,55.15-24.46,84.68-.35,3.67,4.07,8.48,7.35,11.68,28,27.39,61,46.78,98.21,58.86,3.2,1,6.4,2,9.47,3-2.54,32.83-38,52.94-69.48,38.67-18-8.15-34.64-19.29-51.76-29-7.27,27.42-6.77,29.71,16.63,44.11,13.57,8.36,28,15.41,42,23.09-7.63,36.24-23.1,45.36-65.33,38-4,27.84,10.67,61.54-25.46,79.57-35.4-17.11-20.8-51.37-24.87-80.73-16.75,6-33.86,8.8-47.16-3.52-9-8.35-14.35-20.68-21.58-31.61,17.57-9.54,31.91-16.59,45.5-24.87,22.63-13.8,23.32-16.45,16.93-44.33-16.79,9.65-32.88,20.37-50.18,28.54-32.1,15.17-64.7-1.95-72.75-37.86,37.49-10.38,70.85-28.59,100.66-53.89,12.29-10.43,19.1-20.52,13.73-37.3-7.08-22.08-12.59-44.66-19.85-70.92-17.75,21.87-34.91,35.15-60.33,30.67-15.42-2.72-26.66-10.85-35-23.42,14.37-13.82,28.4-27.15,42.23-40.67,6.31-6.17,11-13.16,3.91-21.68-7.52-9-15.07-5.25-23.16,0-11.43,7.41-22.93,15-35.27,20.64-30.47,13.9-64.27-4.25-69.84-35.5,21.22-10.45,42.19-20.55,62.93-31.12,7.89-4,14.19-9.64,8.39-19.74-5.39-9.35-12.55-8-21.33-4.41-17.07,7-34.28,14.21-52.06,19-33.94,9.11-63.83-14.69-64.35-47,29.9-9,59.17-17.35,88-27.07,5.11-1.73,10.82-8.83,11.76-14.23,1.72-9.77-7.57-14.28-19.57-11.95-23.88,4.64-47.72,10.11-71.85,12.71-34.71,3.73-62.73-30.64-53.79-58.3,34-3.66,66.28-7.06,98.49-10.67,3.82-.43,8.59-.93,11-3.32,4.31-4.24,7.17-10,10.63-15.06-5.71-3.09-11.55-9.05-17.1-8.79-26.25,1.25-52.39,5.8-78.61,6.15-34.36.46-57.39-33.91-47.07-64.08,33.18,0,65.58.18,98-.16,6.24-.07,12.52-2,18.67-3.45,8.52-2.06,14.53-6.69,12.49-16.49-1.94-9.27-9-9.8-17.05-9.38-27.67,1.42-55.47,4.48-83,2.93-33.12-1.86-52.69-36.93-39.91-68.78,30.89,8.5,62.33,12.3,94.72,8.8,38.65-4.19,72.91-20.72,107.88-35.52,9.41-4,18.54-8.71,28.12-12.23,16.68-6.12,29.25,2.8,29.34,20.6.15,32.73-.14,65.46.08,98.19.36,53,26.35,89.82,76.94,106.85,13.47,4.54,22.08,11.7,28.58,24.08,10.41,19.83,23.36,20.1,33.62.59,6.75-12.85,15.65-20.06,29.56-24.92,51.53-18,76-54.18,76.07-108.79,0-31.26-.13-62.53,0-93.79.12-21.53,12.65-29.54,32.9-21.16,14.86,6.15,29.81,12.16,44.38,18.95,61.61,28.72,112.72,37.55,183.28,18.55,12.65,32.57-7.2,66.62-42.14,68.81-24.16,1.52-48.58-1.07-72.88-1.9a51.2,51.2,0,0,1-7.24-1.07c-8.61-1.55-16.29-.12-18.38,9.53-2.12,9.82,4.81,15.27,13,15.94,29,2.37,58.15,4.11,87.27,5,9.48.29,19.05-2.75,28.47-4.25,9.84,37.3-12.46,68-49.55,67.22-24.78-.54-49.46-4.71-74.25-6-5.75-.29-14.82,3.18-17,7.59-4.3,8.58,2.13,14.18,10.86,16.76,29.78,8.81,60.06,12.76,91.09,9.89,5.26-.49,10.51-1.17,15.67-1.75,8.33,36-18,67.17-54,63.27-22.7-2.45-45.2-7.09-67.58-11.74-9.36-1.95-18-4-22.09,6.9-4.23,11.16,3.5,16.46,12.43,19.26C1879.58,595.19,1908,603.5,1938.12,612.57Z" transform="translate(-93.49 -119.61)"/><path class="cls-2" d="M1651.26,453.78l-14.83,37.88-4.58.15c-4.76-12.34-9.51-24.68-13.9-36.08-9,3.39-17.47,7.91-26.44,9.63-14.09,2.69-17-1-13.67-14.7,6.1-25,12.45-50,19.15-76.81-20.27,1.74-41-6.27-57.85,16.66,0-17.86-.78-31.78.19-45.58,1.43-20.3,16.87-34.26,38.29-34.78,9.57-.23,16.65-1.45,23.69-9.78,4.74-5.6,15.36-8.28,23.49-8.59,26.81-1,53.69.11,80.52-.68,9.06-.27,18-3.8,28.28-6.12-1.49,15.64,5.72,34.94-10.91,50.29-1.49,1.38-1.67,4.3-2.24,6.56-5.27,21.14-14.7,29.54-38.6,33.2,2.74,22,5.86,44,8.05,66.14.77,7.78-.74,15.78-1.21,23.69-9.73-1.67-19.51-3.08-29.15-5.19C1657,459.1,1654.82,456.4,1651.26,453.78Zm2.66-131.44c-11.74-6.28-19.34-16.77-30.7-7.55-2.35,1.91-2.79,10.57-.65,12.83C1633.48,339.11,1641.42,326.19,1653.92,322.34Z" transform="translate(-93.49 -119.61)"/><path class="cls-11" d="M1653.92,322.34c-12.5,3.85-20.44,16.77-31.35,5.28-2.14-2.26-1.7-10.92.65-12.83C1634.58,305.57,1642.18,316.06,1653.92,322.34Z" transform="translate(-93.49 -119.61)"/></svg>